<svg xmlns="http://www.w3.org/2000/svg" id="monese-logo_svg__Layer_1" x="0" y="0" viewBox="0 0 1024.7 219.8" xml:space="preserve" style="overflow: unset;"><style>.monese-logo_svg__st0{fill:#0b72fd}.monese-logo_svg__st1{font-family:'BRSonoma-SemiBold'}.monese-logo_svg__st2{font-size:182.18px}.monese-logo_svg__st3{letter-spacing:-1}</style><path fill="currentColor" d="M248.1 2.5c-13.5-5.3-29-1.6-38.8 9.3l-74 81.6-74-81.6C48.3-2.7 26-3.8 11.6 9.2 5.3 14.9 1.2 22.7.2 31.3c-.1 1.2-.2 2.8-.2 4v149.2c-.1 14.6 9 27.7 22.5 32.9 4.1 1.5 8.4 2.3 12.8 2.4 9.9 0 19.4-4.3 26-11.6l28.3-31.3 20.3 29.5c5.9 8.6 15.5 13.3 25.3 13.3 6 0 12.1-1.8 17.4-5.4 3.1-2.1 5.7-4.8 7.9-7.9l20.3-29.5 28.4 31.3c13.1 14.4 35.3 15.5 49.8 2.3 7.3-6.6 11.5-16.1 11.5-26V35.4c.2-14.6-8.8-27.8-22.4-32.9zm-12.7 195c-1.8 0-3.6-.4-5.2-1.1-1.6-.7-3.1-1.8-4.4-3.2l-32-35.2 54.4-79.2.1 105.7c0 7.1-5.8 13-12.9 13zm-190.5-4.3c-4.8 5.3-13 5.7-18.3 1-2.8-2.5-4.3-5.9-4.3-9.6V78.8L76.7 158l-31.8 35.2zM24.6 42.8c-1.5-2.2-2.3-4.9-2.3-7.5V35c0-5.2 3.3-10 8.3-11.8 1.5-.6 3.3-1 5-1 3.6 0 7 1.5 9.3 4.3l75.5 83.2-28.2 31.1-67.6-98zm117.7 150.8c-2.6 3.8-7.9 4.8-11.7 2.1-.8-.6-1.6-1.3-2.1-2.1l-23.3-33.9 30.2-33.4 30.2 33.4-23.3 33.9zm36.2-52.6-28.2-31.1 75.5-83.2c4.9-5.2 13.1-5.6 18.3-.9 2.7 2.5 4.2 5.9 4.2 9.5 0 2.7-.8 5.3-2.3 7.5L178.5 141z" id="monese-logo_svg__Layer_1_00000155837718482006253540000005906767741681651104_"></path><g id="monese-logo_svg__type_outlines"><path fill="currentColor" d="M451.6 71c9.8 0 17.8 3.3 23.9 9.9 6.1 6.6 9.1 15.8 9.1 27.4V169h-22.2v-54.3c0-7.8-1.6-13.6-4.8-17.6-3.2-4-7.7-5.9-13.4-5.9-6.3 0-11.5 2.3-15.7 6.9-4.1 4.6-6.2 11-6.2 19.3V169H400v-54.3c0-7.8-1.6-13.6-4.8-17.6-3.2-4-7.7-5.9-13.4-5.9-6.3 0-11.5 2.3-15.7 6.9-4.1 4.6-6.2 11-6.2 19.3V169h-22.2V72.4h21.9v13.7c3.3-4.9 7.5-8.6 12.8-11.2 5.2-2.6 10.9-3.9 17.1-3.9 14 0 23.7 6.1 29.2 18.2 3.2-5.7 7.7-10.2 13.7-13.4 5.8-3.2 12.3-4.8 19.2-4.8zM586.1 156.4c-9.4 9.4-21.2 14-35.2 14s-25.8-4.7-35.2-14c-9.4-9.4-14.1-21.2-14.1-35.7 0-14.5 4.7-26.4 14.1-35.7 9.4-9.4 21.2-14 35.2-14s25.8 4.7 35.2 14 14.1 21.3 14.1 35.7c.1 14.5-4.6 26.4-14.1 35.7zm-54.5-13.9c5 5.5 11.4 8.3 19.3 8.3s14.3-2.8 19.3-8.3 7.5-12.8 7.5-21.8-2.5-16.2-7.5-21.8-11.4-8.3-19.3-8.3-14.3 2.8-19.3 8.3-7.5 12.8-7.5 21.8 2.5 16.3 7.5 21.8zM671.1 71c10.6 0 19 3.3 25.3 9.9s9.5 15.8 9.5 27.6V169h-22.2v-54.1c0-7.8-1.8-13.7-5.4-17.7-3.6-4-8.5-6-14.8-6-7.2 0-13 2.3-17.4 7-4.4 4.7-6.7 11.2-6.7 19.6V169h-22.2V72.4H639v14c3.4-4.9 7.9-8.6 13.6-11.4 5.7-2.7 11.8-4 18.5-4zM820 118.2c0 1.9-.1 4.5-.4 7.6h-74.9c1 8.4 4 14.8 9.2 19.3 5.2 4.5 11.6 6.7 19.4 6.7 5.6 0 10.5-1.1 14.7-3.5 4.2-2.3 7.3-5.5 9.2-9.5h21.5c-2.7 9.7-8.1 17.4-16.4 23-8.3 5.6-18.1 8.5-29.5 8.5-14.7 0-26.7-4.5-36-13.6-9.3-9-13.9-20.9-13.9-35.4 0-14.8 4.8-26.9 14.3-36.4C746.7 75.7 758.6 71 773 71c13.6 0 24.8 4.3 33.7 12.9 8.8 8.6 13.3 20.1 13.3 34.3zm-30.5-23.6c-4.3-3.5-9.8-5.2-16.5-5.2-6.7 0-12.4 1.8-17.2 5.4-4.8 3.6-8.1 8.6-9.9 15.2h51.9c-1.3-6.8-4-12-8.3-15.4zM875.2 170.4c-12.4 0-22.3-2.9-29.8-8.7-7.5-5.8-11.4-13.7-11.9-23.7H855c.6 4.6 2.8 8.2 6.5 10.8 3.7 2.6 8.6 3.9 14.7 3.9 5.7 0 10.1-1.1 13.3-3.3s4.7-5.2 4.7-8.9c0-2.9-1.2-5.2-3.6-6.8-2.4-1.6-6.7-3.1-12.8-4.3l-15.5-2.9c-18.6-3.3-27.9-11.8-27.9-25.7 0-8.9 3.6-16.1 10.8-21.6 7.2-5.5 16.9-8.3 29.3-8.3 12 0 21.5 2.7 28.5 8.2 7 5.5 10.8 13.1 11.6 23h-21.3c-1.3-9.1-8.1-13.7-20.2-13.7-5.6 0-9.9 1-12.8 3-3 2-4.5 4.6-4.5 7.9 0 2.5 1.2 4.6 3.5 6.2 2.3 1.6 6.6 2.9 12.8 4l15.5 2.7c18.7 3.4 28.1 12.2 28.1 26.4 0 9.5-3.6 17.1-10.8 23-7.4 5.9-17.2 8.8-29.7 8.8zM1026 118.2c0 1.9-.1 4.5-.4 7.6h-74.9c1 8.4 4 14.8 9.2 19.3 5.2 4.5 11.6 6.7 19.4 6.7 5.6 0 10.5-1.1 14.7-3.5 4.2-2.3 7.3-5.5 9.2-9.5h21.5c-2.7 9.7-8.1 17.4-16.4 23-8.3 5.6-18.1 8.5-29.5 8.5-14.7 0-26.7-4.5-36-13.6-9.3-9-13.9-20.9-13.9-35.4 0-14.8 4.8-26.9 14.3-36.4C952.7 75.7 964.7 71 979 71c13.6 0 24.8 4.3 33.7 12.9 8.9 8.6 13.3 20.1 13.3 34.3zm-30.5-23.6c-4.3-3.5-9.8-5.2-16.5-5.2-6.7 0-12.4 1.8-17.2 5.4-4.8 3.6-8.1 8.6-9.9 15.2h51.9c-1.2-6.8-4-12-8.3-15.4z"></path></g></svg>