<?xml version="1.0" encoding="UTF-8"?>
<svg fill="none" viewBox="0 0 18 18" xmlns="http://www.w3.org/2000/svg">
<path d="m8.1668 11.5h1.6667v1.6666h-1.6667v-1.6666zm0-6.6667h1.6667v5h-1.6667v-5zm0.825-4.1667c-4.6 0-8.325 3.7333-8.325 8.3333 0 4.6 3.725 8.3333 8.325 8.3333 4.6084 0 8.3416-3.7333 8.3416-8.3333 0-4.6-3.7333-8.3333-8.3416-8.3333zm0.00833 15c-3.6833 0-6.6667-2.9833-6.6667-6.6666 0-3.6833 2.9833-6.6667 6.6667-6.6667 3.6833 0 6.6666 2.9833 6.6666 6.6667 0 3.6833-2.9833 6.6666-6.6666 6.6666z" fill="#CC1F2D"/>
</svg>
